# xmcd
#
# Track frame offsets: 
#        150
#        24010
#        52060
#        80517
#        103570
#        124152
#        151207
#        171287
#        196312
#        223027
#
# Disc length: 3128 seconds
#
# Revision: 1
# Processed by: cddbd v1.5.2PL0 Copyright (c) Steve Scherf et al.
# Submitted via: ExactAudioCopyFreeDBPlugin 1.0
#
DISCID=7f0c360a
DTITLE=Mingus Charles - The Sound of Jazz, Vol. 5
DYEAR=1994
DGENRE=Jazz
TTITLE0=Peggy's Blue Skylight
TTITLE1=Fables of Faubus
TTITLE2=Caroline Keikki Mingus
TTITLE3=Slop
TTITLE4=So Long Eric
TTITLE5=Farewell, Farewell
TTITLE6=Just For Laughs PT. 1
TTITLE7=It Might as Well be Spring
TTITLE8=Duke Ellington's Sound Of Love
TTITLE9=Just For Laughs PT. 2
EXTD=YEAR: 1994
EXTT0=
EXTT1=
EXTT2=
EXTT3=
EXTT4=
EXTT5=
EXTT6=
EXTT7=
EXTT8=
EXTT9=
PLAYORDER=
